<?xml version="1.0" encoding="UTF-8"?>
<svg width="102px" height="17px" viewBox="0 0 102 17" version="1.1" xmlns="http://www.w3.org/2000/svg" xmlns:xlink="http://www.w3.org/1999/xlink">
    <!-- Generator: Sketch 48.1 (47250) - http://www.bohemiancoding.com/sketch -->
    <title>Artboard 2</title>
    <desc>Created with Sketch.</desc>
    <defs></defs>
    <g id="Social" stroke="none" stroke-width="1" fill="none" fill-rule="evenodd">
        <g id="Artboard-2" fill="#FFFFFF">
            <g id="Logo">
                <path d="M4.52650635,15.6254016 C4.61879206,15.6209492 4.69515714,15.6946159 4.69515714,15.7869016 C4.69515714,16.4654175 4.85868095,16.0359651 2.78279206,16.7445683 C1.98446667,16.9787905 1.24887937,17.249846 1.24887937,16.4258857 L1.24887937,6.01770317 C1.24887937,5.34930635 0.86098254,5.1907746 0.202434921,5.22531429 C0.110419048,5.23017143 0.0336492063,5.15596508 0.0336492063,5.06381429 C0.0336492063,4.78169524 0.000323809524,4.63166349 0.162093651,4.59671905 C2.15028413,4.16753651 2.9425381,3.12446508 3.37037143,3.66698095 C3.52701429,3.86706825 3.47992698,3.3926873 3.47992698,14.8122349 C3.47992698,15.4806317 3.85635556,15.6577825 4.52650635,15.6254016" id="Fill-20"></path>
                <path d="M9.63905397,7.24239127 C8.00813333,7.24239127 7.74652222,9.58407381 7.74652222,11.2066294 C7.74652222,13.1679706 8.2681254,16.2266214 10.2167841,16.2266214 C11.8674032,16.2266214 12.1291492,13.8606532 12.1291492,12.2026135 C12.1291492,10.2304786 11.595673,7.24239127 9.63905397,7.24239127 M12.1789349,7.15266905 C14.9356333,8.67349444 15.0414111,12.4504627 13.9119905,14.4735976 C11.5442683,18.7129389 5.29622857,17.1430024 5.29622857,11.7843595 C5.29622857,7.42790714 9.16264921,5.49071667 12.1789349,7.15266905" id="Fill-21"></path>
                <path d="M23.8777278,14.9716706 C23.2402278,16.2598929 22.1446722,16.904004 20.5907913,16.904004 C14.0506484,16.904004 14.2931008,6.56503571 20.3119103,6.56503571 C23.4502992,6.56503571 24.6676881,8.9005119 23.7681722,9.83200397 C23.2021802,10.4172897 21.8521643,10.1205992 21.9453944,9.19463889 C21.9982833,7.89319444 21.5469738,7.2423373 20.5907913,7.2423373 C19.8203944,7.2423373 19.2293071,7.6209246 18.8177992,8.37782937 C17.6887833,10.4533135 17.9738706,16.2267024 20.7701008,16.2267024 C21.3807516,16.2267024 21.8656563,16.0840913 22.2242754,15.7983294 C23.0916802,15.1079405 22.7878389,14.5134802 23.2004262,14.5134802 L23.6586167,14.5134802 C23.8543865,14.5134802 24.028704,14.6695833 23.8777278,14.9716706" id="Fill-22"></path>
                <path d="M29.8019175,15.2704389 C30.1734889,14.8057722 30.4325365,14.3342246 30.5787905,13.8560659 L30.5787905,11.0273198 C28.1884016,11.5452802 26.9931397,12.6210024 26.9931397,14.2544865 C26.9931397,16.1767008 28.8619254,16.4454627 29.8019175,15.2704389 M33.0390683,15.1110976 C33.2564254,15.3172563 33.6185524,15.3001214 33.8851556,15.2716532 C33.9808143,15.2613992 34.0650048,15.3361452 34.0650048,15.4323437 C34.0650048,16.319177 34.275346,15.6405262 31.9333937,16.7047802 C31.7223778,16.8021929 31.3052032,16.9836611 31.0767825,16.9836611 C30.7313857,16.9836611 30.5654333,16.7845183 30.5787905,16.3860976 L30.6983302,14.85205 C29.5165603,17.4510262 26.8607825,17.2875024 25.5388302,16.3263278 C24.4382825,15.5263833 24.4206079,13.7857722 25.1901952,12.7405421 C26.178219,11.397677 28.9422032,10.7512722 30.5787905,10.4097881 C30.5787905,8.20855794 30.6655444,7.16265317 29.562973,7.16265317 C26.6705444,7.16265317 28.1862429,10.1707087 26.3158381,10.1707087 C24.347481,10.1707087 25.1555206,6.54512143 29.6424413,6.54512143 C31.9298857,6.54512143 32.8497746,7.26748651 32.8497746,9.61294683 C32.8497746,14.8357246 32.7785365,14.8647325 33.0390683,15.1110976" id="Fill-23"></path>
                <path d="M48.7249413,7.24239127 C48.1138857,7.24239127 47.6457111,7.57443095 47.3204175,8.2383754 C46.4115921,10.0929944 46.5849651,16.2266214 49.3026714,16.2266214 C49.9266794,16.2266214 50.4013302,15.8879706 50.7268937,15.210669 C51.6117032,13.3684627 51.4893302,7.24239127 48.7249413,7.24239127 M53.6651952,11.6248833 C53.6651952,15.9203516 49.8550365,18.0270024 46.7926079,16.2963754 C42.765227,14.022423 43.9414651,6.56495476 49.0036873,6.56495476 C51.4178222,6.56495476 53.6651952,8.3973119 53.6651952,11.6248833" id="Fill-24"></path>
                <path d="M61.2618071,15.3336897 C61.9192754,13.9956817 61.9511167,10.5650548 61.1388944,8.68655476 C60.2860611,6.71617381 58.4665214,6.94594365 57.3040452,8.53719762 L57.3040452,14.0951183 C57.3334579,14.8400151 57.9276484,15.5715548 58.5690611,15.9676817 C59.6905214,16.6618484 60.8323548,16.2073008 61.2618071,15.3336897 M64.1567992,11.8241341 C64.1567992,14.9797929 62.0616167,16.9638008 59.9136802,16.9638008 C58.5919976,16.9638008 58.152831,16.3121341 57.4136008,15.9576976 C56.974569,15.7484357 56.1788071,15.773531 55.920704,16.5920944 C55.8755056,16.7353802 55.7382913,16.7047532 55.5112198,16.7047532 C55.2054897,16.7047532 55.0530294,16.5454119 55.0530294,16.2267294 C55.0530294,5.23811825 55.1380294,5.66325317 54.8439024,5.39665 C54.6316722,5.20492778 54.2911325,5.19710238 54.0067198,5.21194365 C53.914569,5.21680079 53.8379341,5.14259444 53.8379341,5.05044365 C53.8379341,4.18776111 53.7416008,5.01131667 56.08895,3.79298333 C56.4605214,3.60719762 56.7129579,3.51410238 56.8458548,3.51410238 C57.1513151,3.51410238 57.3040452,3.70676905 57.3040452,4.09183254 L57.3040452,7.7603246 C59.4179817,5.26105476 64.1567992,6.67772143 64.1567992,11.8241341" id="Fill-25"></path>
                <path d="M70.0141222,15.2704389 C70.3858286,14.8057722 70.6448762,14.3342246 70.7911302,13.8560659 L70.7911302,11.0273198 C68.4006063,11.5452802 67.2053444,12.6210024 67.2053444,14.2544865 C67.2053444,16.1748119 69.0737254,16.4460024 70.0141222,15.2704389 M73.251273,15.1110976 C73.4686302,15.3172563 73.8308921,15.3001214 74.0974952,15.2716532 C74.193154,15.2613992 74.2772095,15.3361452 74.2772095,15.4323437 C74.2772095,16.3187722 74.4721698,15.6475421 72.1457333,16.7047802 C71.9345825,16.8021929 71.5175429,16.9836611 71.2891222,16.9836611 C70.9435905,16.9836611 70.7776381,16.7845183 70.7911302,16.3860976 L70.9106698,14.85205 C69.7289,17.4510262 67.0729873,17.2875024 65.7510349,16.3263278 C65.1664238,15.9013278 64.8744556,15.2639627 64.8744556,14.4138278 C64.8744556,12.0636452 67.2301698,11.152796 70.7911302,10.4097881 C70.7911302,8.18143889 70.869654,7.16265317 69.7751778,7.16265317 C66.891519,7.16265317 68.3996619,10.1707087 66.5280429,10.1707087 C64.5598206,10.1707087 65.3677254,6.54512143 69.854781,6.54512143 C72.1420905,6.54512143 73.0621143,7.26748651 73.0621143,9.61294683 C73.0621143,14.8357246 72.9908762,14.8647325 73.251273,15.1110976" id="Fill-26"></path>
                <path d="M82.6853286,14.9716706 C82.0478286,16.2598929 80.9521381,16.904004 79.3983921,16.904004 C73.8789238,16.904004 73.0990825,9.41469444 76.8784794,7.18256746 C79.2860032,5.76171825 82.8006857,6.94389286 82.8646381,9.15470238 C82.8646381,10.4855595 80.6308921,10.4063611 80.7529952,9.19463889 C80.8058841,7.89319444 80.3545746,7.2423373 79.3983921,7.2423373 C77.4799556,7.2423373 77.0078683,9.61464683 77.0078683,11.5253929 C77.0078683,13.5085913 77.6276937,16.2267024 79.5777016,16.2267024 C80.7919873,16.2267024 81.508146,15.5894722 81.7491143,14.7325913 C81.8237254,14.4587024 81.9906222,14.5134802 82.4662175,14.5134802 C82.6618524,14.5134802 82.8361698,14.6695833 82.6853286,14.9716706" id="Fill-27"></path>
                <path d="M91.7276556,14.9716706 C91.0901556,16.2598929 89.9946,16.904004 88.440854,16.904004 C81.9005762,16.904004 82.1431635,6.56503571 88.1618381,6.56503571 C92.097473,6.56503571 92.8195683,10.1308532 90.8312429,10.1308532 C90.2400206,10.1308532 89.7377111,9.76710714 89.7954571,9.19463889 C89.848346,7.89319444 89.3970365,7.2423373 88.440854,7.2423373 C87.6704571,7.2423373 87.0793698,7.6209246 86.667727,8.37782937 C85.5387111,10.4533135 85.8237984,16.2267024 88.6201635,16.2267024 C89.8343143,16.2267024 90.5506079,15.5894722 90.7915762,14.7325913 C90.8660524,14.4587024 91.0330841,14.5134802 91.5085444,14.5134802 C91.7043143,14.5134802 91.8786317,14.6695833 91.7276556,14.9716706" id="Fill-28"></path>
                <path d="M96.749496,7.24239127 C95.1185754,7.24239127 94.8570992,9.58407381 94.8570992,11.2066294 C94.8570992,13.1679706 95.3787024,16.2266214 97.3272262,16.2266214 C98.9779802,16.2266214 99.2395913,13.8606532 99.2395913,12.2026135 C99.2395913,10.2304786 98.7061151,7.24239127 96.749496,7.24239127 M101.689885,11.6248833 C101.689885,16.0015738 97.8186071,17.9924627 94.8172976,16.2963754 C90.7897817,14.022423 91.9661548,6.56495476 97.028377,6.56495476 C99.4724643,6.56495476 101.689885,8.44966111 101.689885,11.6248833" id="Fill-29"></path>
                <path d="M38.5987968,6.87793016 C38.5987968,7.50234286 38.5106937,7.39589048 39.7332095,7.39589048 L39.7367175,16.4273429 C39.7367175,17.253327 40.4798603,16.9780889 41.2707651,16.7460254 C43.3583921,16.0335095 43.1831302,16.4630968 43.1831302,15.7888984 C43.1831302,15.699446 43.1110825,15.6271286 43.0227095,15.6271286 C42.3949238,15.6271286 41.9840905,15.5326841 41.9840905,14.8136921 C41.9840905,14.8136921 41.9840905,12.8659778 41.9843603,12.8659778 L41.9843603,7.39953333 C42.454019,7.39953333 43.6221619,7.39481111 44.0015587,7.39481111 C44.2205349,7.39481111 44.2205349,7.24113651 44.2205349,6.87347778 C44.2205349,6.75245397 44.1224476,6.65436667 44.0014238,6.65436667 C44.0014238,6.65436667 41.9843603,6.65436667 41.9843603,6.65423175 C41.9843603,5.67295397 42.0234873,4.80082698 41.9403762,3.92370794 C41.4484556,-1.26695873 35.407519,-0.535419048 34.9888603,2.43377937 C34.9630905,2.61700159 34.9973603,2.82032698 34.8880746,2.98223175 C34.7515349,3.18474762 34.1962016,3.35555714 34.1962016,4.2471127 C34.1962016,5.30354127 34.9846778,5.43346984 34.9846778,6.0883746 L34.9846778,16.4273429 C34.9846778,17.2523825 35.7253921,16.9787635 36.5185905,16.7460254 C38.6068921,16.0332397 38.4310905,16.4633667 38.4310905,15.7883587 C38.4310905,15.6987714 38.3589079,15.6265889 38.2704,15.6265889 C37.6355984,15.6265889 37.2158603,15.5419937 37.2158603,14.813827 L37.2158603,6.17863651 C37.2158603,5.98745397 36.9182254,5.98880317 36.6046698,5.88140635 C35.5263841,5.51226349 34.9958762,4.69653333 34.9958762,4.25129524 C34.9958762,3.91912063 35.2047333,3.60731905 35.5610587,3.52677143 C35.6958444,3.49627937 35.7776063,3.36365238 35.7459,3.22927143 C35.3932175,1.73151746 36.985146,0.738231746 38.527019,0.907692063 C41.8788524,1.27629524 41.2914079,5.65123175 39.713646,6.47397778 C39.0391778,6.82558095 38.5987968,6.45144603 38.5987968,6.87793016 Z" id="Fill-30"></path>
            </g>
        </g>
    </g>
</svg>